<?xml version="1.0" encoding="utf-8"?>
<!-- Generator: Adobe Illustrator 16.0.0, SVG Export Plug-In . SVG Version: 6.00 Build 0)  -->
<!DOCTYPE svg PUBLIC "-//W3C//DTD SVG 1.1//EN" "http://www.w3.org/Graphics/SVG/1.1/DTD/svg11.dtd">
<svg version="1.1" id="Layer_1" xmlns="http://www.w3.org/2000/svg" xmlns:xlink="http://www.w3.org/1999/xlink" x="0px" y="0px"
	 width="340px" height="156px" viewBox="0 0 340 156" style="enable-background:new 0 0 340 156;" xml:space="preserve">
<style type="text/css">
<![CDATA[
	.st0{fill:#231F20;}
	.st1{fill:#C3161C;}
	.st2{fill-rule:evenodd;clip-rule:evenodd;fill:#231F20;}
	.st3{fill:#CD181F;}
	.st4{fill-rule:evenodd;clip-rule:evenodd;fill:#CD181F;}
]]>
</style>
<g>
	<g>
		<path class="st0" d="M97.9,89.9c1.6,0.5,2.9,1.7,2.9,4.5c0,2.9-1.8,4.2-3,4.5C97.2,99,96.7,99,95.9,99h-2.6v-9.4h2.1
			C96.3,89.6,97.2,89.7,97.9,89.9z M98.1,92c-0.4-0.7-1-0.9-1.9-0.9h-1v6.4h1.2c0.3,0,0.6,0,1.1-0.3c0.5-0.2,1.1-0.9,1.1-2.7
			C98.7,93.4,98.5,92.6,98.1,92z"/>
		<path class="st0" d="M103.4,99v-9.4h5.9l-0.3,1.5h-3.7v2.2h3.1v1.6h-3.1v2.5h4.1V99H103.4z"/>
		<path class="st0" d="M30.7,99.4c-1.3,0-2.4-0.3-3.2-1.1c-0.9-0.9-1.4-2.1-1.4-3.6c0-1.2,0.3-2.2,0.8-3c0.8-1.3,2.3-2.1,3.9-2.1
			c1,0,2.1,0.3,2.6,0.7l-0.9,1.3c-0.5-0.3-1.1-0.5-1.7-0.5c-0.8,0-1.6,0.4-2,1c-0.4,0.5-0.5,1.2-0.5,2.3c0,1.3,0.1,2,0.6,2.6
			c0.5,0.6,1.1,0.9,2,0.9c0.7,0,1.2-0.2,1.8-0.6l0.9,1.2C32.9,99.1,31.9,99.4,30.7,99.4z"/>
		<path class="st0" d="M57.6,90.1c1.6,0.5,2.9,1.7,2.9,4.5c0,2.9-1.8,4.2-3,4.5c-0.7,0.2-1.1,0.2-1.9,0.2H53v-9.4h2.1
			C56,89.9,56.9,89.9,57.6,90.1z M57.8,92.3c-0.4-0.7-1-0.9-1.9-0.9h-1v6.4h1.2c0.3,0,0.6,0,1.1-0.3c0.5-0.3,1.1-0.9,1.1-2.7
			C58.4,93.7,58.2,92.9,57.8,92.3z"/>
		<path class="st0" d="M68.2,99.3L67.4,97h-3.2l-0.8,2.3h-2l3.5-9.4H67l3.3,9.4H68.2z M65.9,91.7c-0.1,0.5-1,3.3-1.1,3.8H67
			C66.8,94.9,66,92.2,65.9,91.7z"/>
		<path class="st0" d="M77,90.1c1.6,0.5,2.9,1.7,2.9,4.5c0,2.9-1.8,4.2-3,4.5c-0.7,0.2-1.1,0.2-1.9,0.2h-2.6v-9.4h2.1
			C75.4,89.9,76.3,89.9,77,90.1z M77.2,92.3c-0.4-0.7-1-0.9-1.9-0.9h-1v6.4h1.2c0.3,0,0.6,0,1.1-0.3c0.5-0.3,1.1-0.9,1.1-2.7
			C77.8,93.7,77.6,92.9,77.2,92.3z"/>
		<path class="st0" d="M82.5,99.3v-9.4h5.9l-0.3,1.5h-3.7v2.2h3.1v1.6h-3.1v2.5h4.1v1.6H82.5z"/>
		<path class="st0" d="M42.1,98.4c-0.6,0.5-1.5,0.9-2.8,0.9c-1.7,0-2.8-0.6-3.3-1.4c-0.3-0.5-0.4-1-0.4-2v-6.2h2v5.9
			c0,0.6,0,1,0.2,1.3c0.2,0.5,0.8,0.8,1.6,0.8c0.6,0,1.1-0.2,1.4-0.5c0.2-0.3,0.4-0.6,0.4-1.5v-5.9h2v6.1
			C42.9,97.4,42.7,97.9,42.1,98.4z"/>
		<path class="st0" d="M15.4,91.4H12v2.2h2.8v1.6H12v4.1H10v-9.4h5.6L15.4,91.4z"/>
		<path class="st0" d="M23,99.3L22.2,97H19l-0.8,2.3h-2l3.5-9.4h2.1l3.3,9.4H23z M20.6,91.7c-0.1,0.5-1,3.3-1.1,3.8h2.3
			C21.5,94.9,20.7,92.2,20.6,91.7z"/>
		<path class="st0" d="M50.5,99.3H45v-9.4h2v7.8h3.8L50.5,99.3z"/>
	</g>
	<g>
		<path class="st0" d="M89,56.4l-1.4-3.7h-5.3l-1.3,3.7h-3.4l5.8-15.6H87l5.5,15.6H89z M85.1,43.8c-0.2,0.9-1.6,5.4-1.9,6.4H87
			C86.7,49.2,85.3,44.7,85.1,43.8z"/>
		<path class="st0" d="M75.3,43.3h-5.7V47h4.6v2.6h-4.6v6.8h-3.2V40.8h9.4L75.3,43.3z"/>
		<path class="st0" d="M96.9,54.7c-1.5-1.5-2.2-3.5-2.2-6.1c0-5.1,2.8-8.1,7.4-8.1c2.5,0,4.3,0.8,5.7,2.4c1.1,1.3,1.8,3.2,1.8,5.6
			c0,2.5-0.6,4.3-1.7,5.7c-1.3,1.6-3,2.4-5.6,2.4C99.9,56.7,98.2,56,96.9,54.7z M105.4,52c0.3-0.9,0.4-1.9,0.4-3.4
			c0-1.7-0.2-2.9-0.6-3.8c-0.6-1.3-1.7-1.9-3.2-1.9c-1.4,0-2.5,0.6-3,1.7c-0.5,0.9-0.7,2.2-0.7,3.9c0,1.9,0.3,3.4,0.8,4.3
			c0.6,1,1.6,1.4,3,1.4C103.7,54.3,104.8,53.6,105.4,52z"/>
	</g>
	<rect x="55.4" y="65.8" class="st1" width="54.1" height="13"/>
	<g>
		<path class="st0" d="M96.4,120v-9.4h2v9.4H96.4z"/>
		<path class="st0" d="M90.9,120.2c-1.6,0-2.7-0.5-3.5-1.4c-0.8-0.9-1.2-1.9-1.2-3.4c0-1.9,0.6-3.2,1.9-4.1c0.8-0.5,1.7-0.8,2.8-0.8
			c1.2,0,2.3,0.4,3.3,1l-1,1.2c-0.7-0.5-1.3-0.7-2.2-0.7c-1.1,0-1.9,0.4-2.2,1.3c-0.2,0.6-0.3,1.3-0.3,2.2c0,1.5,0.3,2.4,1,2.8
			c0.4,0.3,1,0.4,1.6,0.4c0.5,0,0.9-0.1,1.2-0.2v-2.1h-1.7l-0.3-1.5h4v4.5C93.2,119.9,92.1,120.2,90.9,120.2z"/>
		<path class="st0" d="M107.4,120l-0.8-2.3h-3.2l-0.8,2.3h-2l3.5-9.4h2.1l3.3,9.4H107.4z M105,112.4c-0.1,0.5-1,3.3-1.1,3.8h2.3
			C105.9,115.6,105.1,112.9,105,112.4z"/>
		<path class="st0" d="M7.3,119.1c-0.9-0.9-1.3-2.1-1.3-3.6c0-3,1.7-4.9,4.4-4.9c1.5,0,2.6,0.5,3.4,1.4c0.7,0.8,1.1,1.9,1.1,3.4
			c0,1.5-0.3,2.6-1,3.4c-0.8,0.9-1.8,1.4-3.4,1.4C9.1,120.2,8,119.8,7.3,119.1z M12.3,117.4c0.2-0.5,0.2-1.1,0.2-2
			c0-1-0.1-1.7-0.4-2.3c-0.4-0.8-1-1.1-1.9-1.1c-0.8,0-1.5,0.4-1.8,1c-0.3,0.6-0.4,1.3-0.4,2.3c0,1.2,0.2,2,0.5,2.6
			c0.3,0.6,1,0.8,1.8,0.8C11.4,118.8,12,118.4,12.3,117.4z"/>
		<path class="st0" d="M57.1,119.1c-0.9-0.9-1.3-2.1-1.3-3.6c0-3,1.7-4.9,4.4-4.9c1.5,0,2.6,0.5,3.4,1.4c0.7,0.8,1.1,1.9,1.1,3.4
			c0,1.5-0.3,2.6-1,3.4c-0.8,0.9-1.8,1.4-3.4,1.4C58.9,120.2,57.9,119.8,57.1,119.1z M62.2,117.4c0.2-0.5,0.2-1.1,0.2-2
			c0-1-0.1-1.7-0.4-2.3c-0.4-0.8-1-1.1-1.9-1.1c-0.8,0-1.5,0.4-1.8,1c-0.3,0.5-0.4,1.3-0.4,2.3c0,1.2,0.2,2,0.5,2.6
			c0.3,0.6,1,0.8,1.8,0.8C61.2,118.8,61.9,118.4,62.2,117.4z"/>
		<path class="st0" d="M76.5,119.1c-0.9-0.9-1.3-2.1-1.3-3.6c0-3,1.7-4.9,4.4-4.9c1.5,0,2.6,0.5,3.4,1.4c0.7,0.8,1.1,1.9,1.1,3.4
			c0,1.5-0.3,2.6-1,3.4c-0.8,0.9-1.8,1.4-3.4,1.4C78.3,120.2,77.3,119.8,76.5,119.1z M81.6,117.4c0.2-0.5,0.2-1.1,0.2-2
			c0-1-0.1-1.7-0.4-2.3c-0.4-0.8-1-1.1-1.9-1.1c-0.8,0-1.5,0.4-1.8,1c-0.3,0.5-0.4,1.3-0.4,2.3c0,1.2,0.2,2,0.5,2.6
			c0.3,0.6,1,0.9,1.8,0.9C80.6,118.8,81.3,118.4,81.6,117.4z"/>
		<path class="st0" d="M54.7,112.3h-2.5v7.8h-2v-7.8h-2.6v-1.6h7.4L54.7,112.3z"/>
		<path class="st0" d="M21.6,110.9c1.6,0.5,2.9,1.7,2.9,4.5c0,2.9-1.8,4.2-3,4.5c-0.7,0.2-1.1,0.2-1.9,0.2H17v-9.4h2.1
			C20,110.7,20.9,110.7,21.6,110.9z M21.8,113.1c-0.4-0.7-1-0.9-1.9-0.9h-1v6.4h1.2c0.3,0,0.6,0,1.1-0.3c0.5-0.2,1.1-0.9,1.1-2.7
			C22.4,114.5,22.2,113.7,21.8,113.1z"/>
		<path class="st0" d="M72.6,120.1h-5.4v-9.4h2v7.8h3.8L72.6,120.1z"/>
		<path class="st0" d="M28,119.1c-0.9-0.9-1.3-2.1-1.3-3.6c0-3,1.7-4.9,4.4-4.9c1.5,0,2.6,0.5,3.4,1.4c0.7,0.8,1.1,1.9,1.1,3.4
			c0,1.5-0.3,2.6-1,3.4c-0.8,0.9-1.8,1.4-3.4,1.4C29.8,120.2,28.8,119.8,28,119.1z M33.1,117.4c0.2-0.5,0.2-1.1,0.2-2
			c0-1-0.1-1.7-0.4-2.3c-0.4-0.8-1-1.1-1.9-1.1c-0.8,0-1.5,0.4-1.8,1c-0.3,0.5-0.4,1.3-0.4,2.3c0,1.2,0.2,2,0.5,2.6
			c0.3,0.6,1,0.9,1.8,0.9C32.1,118.8,32.8,118.4,33.1,117.4z"/>
		<path class="st0" d="M42.9,120.1l-2.3-4.3c-0.5-0.9-1-2-1.1-2.4c0,0.6,0.1,1.7,0.1,2.6l0.1,4.1h-1.9v-9.4h2.2l2.4,4.3
			c0.5,0.9,0.8,1.7,1,2.2c0-0.5-0.1-1.5-0.1-2.4l0-4H45v9.4H42.9z"/>
	</g>
</g>
<g>
	<path class="st2" d="M134.3,64.8V45.3c0-1.8-1.5-2.3-3-2.5v-1.7h11.9v1.7c-1.5,0.1-2.8,0.6-2.8,2.4v19.3c0,6.5,4.1,9.2,9.5,9.2
		c9.9,0,9.9-7.7,9.9-14.8v-8.4c0-6-0.5-7.4-3.6-7.6v-1.7h10v1.7c-1.8,0.2-3.1,1.1-3.1,4.9v14.4c0,8.2-3.9,14.4-14.3,14.4
		C139.7,76.5,134.3,73.1,134.3,64.8z"/>
	<path class="st2" d="M186,71.6V45.9c0-2.1-1.2-2.9-3.4-3.1v-1.9c4,0.1,7.9,0.1,11.9,0.1c6.7,0,10.9-0.1,15-0.2l0.2,5.6h-1.9
		c-1-2.9-2.9-3.3-8.1-3.3h-7.6v13.4h6.7c2.9,0,4.5,0,4.9-2.4h1.4V61h-1.5c-0.5-1.9-1.8-2.2-4.9-2.2h-6.7v11.3c0,3.5,1.4,4.4,4.3,4.5
		l0,1.7h-13.9v-1.7C184.8,74.5,186,73.8,186,71.6z"/>
	<path class="st2" d="M331.2,66v2.3l0,6.7c-3.5,0.9-8.2,2.1-13.3,2.1c-11.4,0-19.5-8-19.5-18c0-11.4,8.8-18.5,19.9-18.5
		c1.9,0,3.3,0.2,6.7,0.6c0.9,0.1,5.5,1,6.5,1.2l0.5,6.5h-2.3c-1.6-3.2-3.9-6.1-10-6.1c-7.7,0-14.3,4.7-14.3,16
		c0,6.6,3.7,15.9,15,15.9c1.8,0,3.4-0.4,5-1.1c0-0.6,0.1-4.5,0.1-5.5c0-3.1-0.4-4.5-2.9-4.9v-1.8h11.1v1.7
		C331.8,63.3,331.2,64,331.2,66z"/>
	<path class="st4" d="M283.1,65.9c-1.2,1.2-5.3,4.8-6.7,4.8c-0.5,0-1.2-0.3-1.2-0.9c0-0.8,0.7-2.4,1.1-3.6l6.2-18
		c0.4-1.1,0.8-2.5,0.8-3.8c0-1.7-0.7-3.1-3.1-3.1c-7.3,0-18.8,12.9-23,18.1H257l3.7-11.5c0.5-1.4,0.8-2.9,0.8-4.1
		c0-1.5-1.1-2.5-3.5-2.5c-6.8,0-18.2,12.7-21.9,18H236l4-11.6c0.3-0.9,0.8-2.4,0.8-3.7c0-1.5-0.8-2.7-2.6-2.7
		c-5.1,0-10.5,6.1-13.4,9.8c0,0-0.8,0.9-0.2,1.4c0.7,0.6,1.3,0,1.3,0l2.1-2.3c1.4-1.4,2.9-2.7,4.5-2.7c0.9,0,1.2,0.7,1.2,1.5
		c0,0.7-0.2,1.5-0.3,1.9l-8,24.2c-0.2,0.9,1.5,1.3,2.2,1.3c1.9,0,2.8-0.6,3.1-1.2l1.4-4c2.1-5.8,5.4-11.1,9.6-15.7
		c2.5-2.7,7.1-8.1,11.2-8.1c1.1,0,1.5,0.9,1.5,1.9c0,2-1.1,4.9-1.3,5.7l-6.7,20.1c-0.1,0.6,0.5,1.5,2.6,1.5c1.9,0,2.5-0.7,2.7-1.4
		l1.3-3.1c2.1-5.5,4.3-9.5,7.9-14c2.5-3,9.5-10.8,13.5-10.8c0.8,0,1.8,0.6,1.8,1.8c0,0.8-0.5,2.1-0.8,3.2l-6.2,17.8
		c-0.5,1.5-0.9,2.8-0.9,3.6c0,2,1.4,2.6,2.8,2.6c4.2,0,7.8-3.5,10.8-6.8l2.4-2.6c0,0,0.7-0.7,0-1.2
		C283.6,65.4,283.1,65.9,283.1,65.9z"/>
	<rect x="225.9" y="86.5" class="st3" width="53.2" height="12.8"/>
</g>
</svg>
